<svg width="326" height="218" viewBox="0 0 326 218" fill="none" xmlns="http://www.w3.org/2000/svg">
<g clip-path="url(#clip0_450_537)">
<path d="M165.149 61.617C162.242 56.8106 158.798 51.6788 153.403 50.1094C147.157 48.2919 140.739 51.9024 135.296 55.4652C119.018 66.1206 103.342 77.6679 88.3392 90.0544L88.3556 90.241C100.036 89.4357 111.716 88.6304 123.396 87.8251C131.835 87.2433 140.563 86.5812 148.021 82.5901C150.851 81.0756 153.609 79.0526 156.816 78.9116C160.8 78.7365 164.274 81.5183 167.004 84.4246C183.153 101.617 187.826 127.907 205.943 143.012C194.519 114.845 180.878 87.6277 165.149 61.617Z" fill="#64371D"/>
<path d="M264.412 207.437C262.627 205.182 261.897 204.654 260.135 202.379C245.793 183.833 232.311 164.661 219.692 144.862C211.12 131.415 202.974 117.71 195.252 103.747C191.576 97.1088 188.001 90.4185 184.526 83.676C181.83 78.4481 179.194 73.189 176.618 67.8985C175.882 66.3875 175.166 64.8695 174.454 63.348C172.776 59.7701 171.129 56.1748 169.36 52.6456C167.345 48.623 164.892 44.406 161.191 41.7034C159.507 40.423 157.494 39.6483 155.385 39.4699C152.373 39.2753 149.593 40.5189 146.981 41.8771C127.864 51.8431 109.967 64.338 93.7788 78.5558C77.5496 92.8056 63.0433 108.904 50.5557 126.524C50.1736 127.069 49.2702 126.548 49.6558 126C51.1742 123.853 52.7227 121.729 54.3013 119.629C73.9298 93.5295 97.9974 71.0856 125.404 53.3229C130.015 50.3356 134.712 47.4883 139.496 44.7811C141.908 43.4159 144.33 42.0682 146.793 40.8038C149.208 39.5636 151.772 38.4486 154.531 38.4069C163.919 38.261 168.78 48.8905 172.119 56.0428C173.168 58.2938 174.23 60.5378 175.305 62.7748C179.367 71.268 183.585 79.6836 187.959 88.0216C190.659 93.1696 193.418 98.2875 196.235 103.375C205.005 119.219 214.326 134.742 224.198 149.944C237.277 170.081 250.25 187.869 265.149 206.7C265.559 207.221 264.826 207.965 264.412 207.437Z" fill="#64371D"/>
<path d="M92.8511 73.3071C92.3056 72.6992 91.7636 72.0913 91.2146 71.4834C86.8853 66.6966 82.24 61.9655 76.295 59.2212C73.4604 57.8715 70.366 57.1543 67.2265 57.1197C63.9813 57.1301 60.8091 57.9811 57.8106 59.1726C56.393 59.7388 55.0066 60.3815 53.6412 61.0658C52.0811 61.8508 50.5488 62.688 49.0236 63.5321C46.1605 65.1161 43.3345 66.7696 40.5458 68.4925C34.9969 71.9211 29.6218 75.6113 24.4204 79.5632C21.7241 81.6127 19.0834 83.7293 16.4984 85.9131C14.0941 87.9417 11.7384 90.0248 9.4313 92.1623C8.93795 92.6173 8.2013 91.8809 8.69466 91.4259C9.3027 90.8596 9.9177 90.2969 10.5327 89.7411C12.27 88.171 14.035 86.631 15.828 85.1211C19.0974 82.363 22.4514 79.7114 25.8902 77.1663C31.2375 73.2063 36.7689 69.515 42.4844 66.0922C45.3405 64.3832 48.236 62.7459 51.1707 61.1804C52.0568 60.708 52.9533 60.246 53.8601 59.8083C55.9177 58.7707 58.0556 57.9006 60.2532 57.2065C63.366 56.1997 66.6595 55.8763 69.9089 56.2582C73.0462 56.7144 76.0689 57.7599 78.8176 59.3394C84.6547 62.6012 89.1819 67.6449 93.5877 72.5672C94.0325 73.0674 93.2993 73.8073 92.8511 73.3071Z" fill="#64371D"/>
<path d="M212.452 122.911L226.44 117.796L233.384 115.256C235.646 114.429 237.902 113.488 240.241 112.896C242.272 112.315 244.43 112.343 246.446 112.975C248.245 113.64 249.891 114.66 251.287 115.974C252.713 117.287 254.04 118.704 255.257 120.213C256.769 122.03 258.258 123.866 259.755 125.695C265.931 133.246 272.066 140.83 278.161 148.446C284.256 156.062 290.31 163.711 296.323 171.392C302.351 179.092 308.338 186.824 314.283 194.588C315.011 195.539 315.739 196.491 316.466 197.443C316.867 197.969 317.773 197.45 317.366 196.917C311.377 189.075 305.346 181.264 299.274 173.486C293.186 165.69 287.057 157.926 280.885 150.196C274.714 142.465 268.501 134.768 262.246 127.105C260.688 125.196 259.127 123.289 257.564 121.384C256.245 119.777 254.941 118.153 253.494 116.657C250.839 113.912 247.522 111.486 243.551 111.42C241.217 111.381 238.957 112.122 236.788 112.906C234.45 113.752 232.117 114.614 229.782 115.468L215.696 120.618L212.175 121.906C211.55 122.134 211.82 123.142 212.452 122.911Z" fill="#64371D"/>
<path d="M74.4543 65.2445C67.3463 61.5922 58.2435 62.3075 51.7117 66.8705C64.1706 69.0194 76.4931 71.8948 88.6163 75.4818C83.582 72.5323 79.644 67.9111 74.4543 65.2445Z" fill="#64371D"/>
<path d="M51.6417 66.8579L50.2733 67.9699C50.7362 67.5807 51.2174 67.2158 51.7117 66.8705C51.6883 66.8665 51.6651 66.8619 51.6417 66.8579Z" fill="#A36238"/>
<path d="M250.76 122.962C249.383 121.286 247.894 119.532 245.835 118.851L243.912 118.927C258.549 144.784 278.317 167.378 302.002 185.322C284.922 164.535 267.841 143.748 250.76 122.962Z" fill="#64371D"/>
<path d="M131.195 109.139C132.085 112.371 134.089 115.184 136.854 117.081C137.923 117.808 139.187 118.506 139.553 119.746C139.745 120.537 139.627 121.371 139.222 122.076C138.818 122.773 138.326 123.415 137.758 123.987L137.707 124.181C135.054 122.609 132.531 120.621 131.065 117.909C129.6 115.197 129.396 111.642 131.195 109.139Z" fill="#64371D"/>
<path d="M219.504 186.06C220.394 189.292 222.399 192.105 225.164 194.002C226.232 194.729 227.497 195.427 227.863 196.667C228.055 197.458 227.937 198.292 227.532 198.998C227.127 199.694 226.636 200.336 226.068 200.908L226.016 201.102C223.364 199.53 220.84 197.542 219.375 194.83C217.91 192.118 217.705 188.563 219.504 186.06Z" fill="#64371D"/>
<path d="M43.264 180.755C44.1538 183.987 46.1584 186.8 48.9231 188.697C49.9919 189.424 51.2566 190.122 51.6222 191.362C51.8146 192.153 51.6961 192.987 51.2911 193.693C50.8869 194.389 50.3951 195.031 49.8277 195.603L49.7759 195.797C47.1234 194.225 44.5999 192.237 43.1347 189.525C41.6695 186.813 41.4649 183.258 43.264 180.755Z" fill="#64371D"/>
<path d="M246.073 39.4399C256.748 39.4399 265.403 30.7878 265.403 20.1149C265.403 9.44198 256.748 0.789886 246.073 0.789886C235.398 0.789886 226.743 9.44198 226.743 20.1149C226.743 30.7878 235.398 39.4399 246.073 39.4399Z" fill="#64371D"/>
<path d="M280.956 5.28783C271.588 4.02187 260.892 9.08412 258.464 18.218C257.853 16.594 256.74 15.2065 255.288 14.256C253.836 13.3055 252.119 12.8411 250.385 12.9301C248.652 13.019 246.991 13.6566 245.644 14.7507C244.296 15.8449 243.332 17.3389 242.89 19.017L243.962 19.7849C264.037 24.1252 284.818 24.0313 304.854 19.5097C298.337 12.663 290.324 6.55376 280.956 5.28783Z" fill="#A36238"/>
<path d="M240.78 31.0545C231.412 29.7885 220.717 34.8508 218.289 43.9846C217.677 42.3606 216.565 40.9732 215.113 40.0226C213.66 39.0721 211.943 38.6078 210.21 38.6967C208.476 38.7857 206.816 39.4233 205.469 40.5174C204.121 41.6115 203.157 43.1056 202.714 44.7837L203.787 45.5516C223.862 49.8919 244.643 49.7979 264.678 45.2764C258.162 38.4297 250.148 32.3204 240.78 31.0545Z" fill="#A36238"/>
<path d="M322.543 35.9266C322.504 35.9267 322.466 35.9207 322.429 35.9088C222.216 4.22412 133.892 8.36746 77.4433 17.4227C69.7613 18.6546 62.0587 20.0774 54.5495 21.6519C52.6324 22.0534 50.6436 22.4838 48.6382 22.9319C46.2433 23.4651 43.8802 24.0142 41.6143 24.5634C40.6357 24.795 39.6762 25.0285 38.7358 25.2639C37.3113 25.6154 35.866 25.9817 34.3166 26.3843C32.5854 26.8306 30.8263 27.2987 29.0873 27.7757C29.0809 27.7779 29.0744 27.7798 29.0678 27.7812L29.068 27.7816C27.1037 28.3178 25.1498 28.8696 23.2603 29.4205C22.2377 29.7158 21.2502 30.0071 20.3043 30.2946C20.1986 30.3238 20.105 30.3519 20.01 30.3808L19.8068 30.4426C19.6891 30.4785 19.5729 30.5136 19.4567 30.5469L19.4493 30.5492L19.4495 30.5495L19.1419 30.645C18.7751 30.7561 18.4172 30.8645 18.0652 30.9725C8.76238 33.8396 3.64831 35.8792 3.59779 35.8992C3.55159 35.9177 3.5022 35.927 3.45243 35.9264C3.40266 35.9258 3.35349 35.9155 3.30773 35.8959C3.26196 35.8763 3.2205 35.8479 3.18571 35.8124C3.15092 35.7768 3.12348 35.7347 3.10497 35.6885C3.08645 35.6423 3.07721 35.5929 3.07778 35.5432C3.07835 35.4934 3.08872 35.4442 3.1083 35.3985C3.12787 35.3527 3.15626 35.3113 3.19186 35.2765C3.22745 35.2417 3.26955 35.2143 3.31575 35.1958C3.36665 35.1758 8.5057 33.1258 17.8424 30.248C18.1957 30.1396 18.5545 30.0311 18.9224 29.9197L19.2082 29.8309C19.218 29.8272 19.2278 29.8243 19.2378 29.8213C19.3534 29.7884 19.4689 29.7532 19.5862 29.7177L19.7898 29.6559C19.8912 29.6252 19.9912 29.5949 20.0935 29.5667C21.0329 29.2811 22.0237 28.9891 23.049 28.6927C24.9392 28.1413 26.895 27.5896 28.8607 27.0527C28.8669 27.0505 28.8731 27.049 28.8793 27.0471C30.6244 26.5687 32.3899 26.0983 34.1268 25.6506C35.6785 25.2476 37.1266 24.8805 38.5535 24.5283C39.4979 24.2933 40.4592 24.0593 41.4375 23.8263C43.7061 23.2764 46.074 22.7265 48.4731 22.1922C50.4816 21.7437 52.4739 21.3122 54.3941 20.9104C61.9149 19.3333 69.6295 17.9082 77.3232 16.6745C133.852 7.6063 222.303 3.45628 322.657 35.1865C322.744 35.2137 322.817 35.2709 322.865 35.3478C322.913 35.4246 322.932 35.516 322.918 35.6054C322.904 35.6948 322.859 35.7764 322.79 35.8353C322.721 35.8942 322.634 35.9266 322.543 35.9266Z" fill="#A36238"/>
<path d="M99.6759 159.876C99.5446 159.493 99.3238 159.146 99.0316 158.865C98.9237 158.764 98.807 158.674 98.6829 158.595C97.6937 157.936 96.2155 157.788 95.2756 158.595C95.1809 158.678 95.0934 158.768 95.014 158.865C94.7336 159.209 94.4455 159.547 94.1499 159.876C93.6648 160.429 93.1683 160.964 92.649 161.483C92.5012 161.627 92.3534 161.775 92.2018 161.919C92.1146 162.006 92.0274 162.089 91.9403 162.172C91.6067 162.491 91.2656 162.798 90.9207 163.101C90.7388 163.264 90.5569 163.423 90.3712 163.578C90.0945 163.809 89.8178 164.041 89.5373 164.264C89.5108 164.283 89.4843 164.302 89.4577 164.325C89.4502 164.329 89.4464 164.336 89.4388 164.34C89.435 164.34 89.4312 164.34 89.4274 164.347C89.4172 164.352 89.408 164.358 89.4009 164.366C89.3175 164.423 89.2607 164.461 89.219 164.495C89.2341 164.488 89.2493 164.476 89.2644 164.469C89.1962 164.522 89.1242 164.575 89.056 164.628C88.3927 165.117 87.7143 165.587 87.0207 166.026C85.3047 167.124 83.5022 168.081 81.6311 168.887C81.5061 168.936 81.3772 168.989 81.2483 169.039C76.3495 171.045 71.0353 171.828 65.7657 171.32C65.2275 171.278 64.6893 171.221 64.1511 171.149C63.5295 171.058 62.9117 170.948 62.2977 170.823C59.9602 170.357 57.6731 169.667 55.4679 168.762C52.7095 167.499 50.086 165.96 47.6376 164.169C47.2585 163.9 46.8757 163.631 46.4929 163.37C46.9288 162.301 47.3571 161.233 47.774 160.157C47.9825 159.637 48.1833 159.118 48.3804 158.595C49.9306 154.568 51.386 150.502 52.7807 146.421C54.1907 142.287 55.521 138.129 56.7717 133.947C56.9006 133.522 57.0257 133.098 57.147 132.673C57.8027 130.464 58.4318 128.25 59.0344 126.031C59.0913 125.815 59.1519 125.603 59.205 125.387C59.3793 124.75 59.5499 124.114 59.7167 123.477C60.0957 122.041 59.2391 120.324 57.7306 119.98C57.0044 119.793 56.2341 119.896 55.5823 120.267C54.9304 120.637 54.4478 121.246 54.2362 121.965C54.0732 122.579 53.9102 123.189 53.7434 123.803C52.9437 126.77 52.1023 129.727 51.2192 132.673C51.0904 133.098 50.9615 133.522 50.8326 133.947C48.8845 140.366 46.7456 146.72 44.416 153.01C44.1355 153.772 43.8512 154.531 43.5632 155.287C43.4229 155.659 43.2827 156.03 43.1387 156.402C42.862 157.133 42.5778 157.864 42.2935 158.595C42.1305 159.024 41.9637 159.452 41.797 159.876C41.6871 160.145 41.5809 160.414 41.4748 160.68C40.3942 160.292 39.2746 160.022 38.1357 159.876L37.9538 159.853C37.0709 159.747 36.1779 159.755 35.2969 159.876C33.9784 160.03 32.7097 160.472 31.5806 161.17C30.4515 161.868 29.4896 162.805 28.7628 163.916C26.9549 166.761 26.9776 170.831 29.5132 173.248C32.1246 175.738 36.0777 175.719 39.1515 174.162C40.7804 173.28 42.1539 171.993 43.1387 170.425C43.516 169.857 43.8626 169.269 44.1772 168.663C44.2568 168.716 44.3364 168.769 44.416 168.826C44.7192 169.039 45.0224 169.255 45.3218 169.467C47.0664 170.73 48.9049 171.859 50.8213 172.843C54.9419 174.891 59.3774 176.232 63.9427 176.81C64.045 176.822 64.1435 176.837 64.2459 176.848C64.7499 176.913 65.2578 176.962 65.7657 177.003C73.0511 177.552 80.3455 176.062 86.8312 172.699C87.3807 172.415 87.9253 172.117 88.4647 171.805C89.3023 171.32 90.121 170.804 90.9207 170.259C91.3566 169.963 91.7811 169.664 92.2018 169.349C94.0402 167.996 95.7539 166.48 97.3222 164.821C97.9173 164.196 98.487 163.55 99.0316 162.885C99.5465 162.34 99.8433 161.626 99.8654 160.877C99.8625 160.534 99.7983 160.196 99.6759 159.876ZM36.9153 168.902C36.9949 168.845 37.0745 168.785 37.1503 168.724C37.1276 168.781 37.0176 168.845 36.9153 168.902ZM38.1319 167.678C38.0448 167.777 37.9652 167.875 37.878 167.974C37.6128 168.27 37.3279 168.549 37.0252 168.807C36.9835 168.845 36.9381 168.883 36.8926 168.917C36.8921 168.917 36.8916 168.917 36.8911 168.918C36.8906 168.918 36.8902 168.918 36.8899 168.918C36.8895 168.919 36.8892 168.919 36.889 168.92C36.8889 168.92 36.8888 168.921 36.8888 168.921C36.834 168.946 36.7809 168.973 36.7296 169.004C36.5666 169.103 36.3998 169.194 36.2293 169.277C35.8954 169.4 35.5518 169.495 35.2022 169.561C34.9335 169.581 34.6639 169.584 34.3949 169.569H34.3873C34.2017 169.528 34.0182 169.477 33.8377 169.417C33.7468 169.372 33.6596 169.319 33.5724 169.266C33.5383 169.236 33.508 169.205 33.489 169.186C33.452 169.153 33.4178 169.116 33.3867 169.076C33.3867 169.076 33.3866 169.075 33.3865 169.075C33.3863 169.074 33.386 169.074 33.3856 169.074C33.3853 169.073 33.3849 169.073 33.3844 169.073C33.3839 169.073 33.3834 169.073 33.3829 169.073C33.3412 168.997 33.2958 168.921 33.2541 168.845C33.2519 168.843 33.2506 168.841 33.2503 168.838C33.22 168.743 33.1934 168.644 33.1707 168.546C33.1625 168.373 33.1637 168.2 33.1745 168.027C33.2253 167.785 33.2937 167.547 33.3791 167.314C33.4559 167.15 33.5432 166.99 33.6407 166.837C33.6482 166.822 33.6862 166.761 33.7278 166.693C33.7316 166.689 33.7316 166.689 33.7316 166.685C33.7885 166.621 33.8453 166.553 33.906 166.492C34.0083 166.379 34.1182 166.28 34.2281 166.178C34.4419 166.038 34.6633 165.91 34.8914 165.795C35.2532 165.666 35.6245 165.566 36.0019 165.496C36.5584 165.451 37.1177 165.456 37.6734 165.511C38.1996 165.602 38.7188 165.73 39.2273 165.893C38.9191 166.491 38.5683 167.066 38.1774 167.614C38.1623 167.637 38.1471 167.659 38.1319 167.678ZM33.9173 166.432C33.8839 166.485 33.8445 166.535 33.7998 166.579C33.8299 166.523 33.8697 166.473 33.9173 166.432Z" fill="#A36238"/>
<path d="M88.2828 121.177C88.2487 122.367 88.2146 123.557 88.1804 124.746C88.1084 127.388 88.0339 130.03 87.9568 132.673C87.8772 135.648 87.7938 138.621 87.7067 141.593C87.665 143.128 87.622 144.663 87.5778 146.197C87.4603 150.331 87.3441 154.464 87.2291 158.595C87.2178 159.024 87.2026 159.448 87.1912 159.876C87.1344 161.926 87.0775 163.976 87.0207 166.026C86.9562 168.25 86.8931 170.475 86.8312 172.699C86.7857 174.366 86.7389 176.035 86.6909 177.704C86.3498 189.803 86.0087 201.902 85.6676 214.001C85.6532 214.751 85.3491 215.465 84.8191 215.995C84.2891 216.525 83.5744 216.829 82.825 216.843C82.073 216.837 81.3535 216.536 80.8217 216.004C80.2899 215.473 79.9885 214.753 79.9824 214.001C80.1719 207.196 80.364 200.391 80.5585 193.585C80.7291 187.431 80.9022 181.278 81.0778 175.124C81.1346 173.097 81.1915 171.068 81.2483 169.039C81.3355 165.984 81.4214 162.93 81.506 159.876C81.5174 159.448 81.5326 159.024 81.5439 158.595C81.5515 158.22 81.5629 157.849 81.5743 157.474C81.741 151.544 81.9078 145.612 82.0746 139.68C82.1428 137.346 82.2085 135.01 82.2716 132.673C82.3474 130.01 82.4233 127.347 82.4991 124.686C82.5332 123.515 82.5635 122.348 82.5976 121.177C82.612 120.428 82.9161 119.713 83.4461 119.183C83.9761 118.654 84.6908 118.349 85.4402 118.335C86.1922 118.341 86.9117 118.642 87.4435 119.174C87.9753 119.706 88.2767 120.425 88.2828 121.177Z" fill="#A36238"/>
<path d="M244.219 121.966C241.238 133.25 237.676 144.372 233.546 155.288C232.406 158.3 231.24 161.305 229.994 164.273L230.28 163.595C229.724 165.009 229.013 166.357 228.162 167.616C228.104 167.697 228.045 167.777 227.985 167.857C228.279 167.48 228.335 167.406 228.153 167.634C228.056 167.747 227.961 167.862 227.862 167.973C227.596 168.27 227.312 168.549 227.009 168.808C226.933 168.873 226.856 168.936 226.777 168.999L227.133 168.723C227.092 168.82 226.802 168.949 226.712 169.004C226.42 169.18 226.115 169.335 225.8 169.466L226.479 169.179C225.964 169.387 225.425 169.535 224.876 169.619L225.631 169.518C225.091 169.592 224.544 169.598 224.002 169.535L224.758 169.637C224.315 169.576 223.881 169.459 223.468 169.289L224.147 169.576C223.926 169.479 223.713 169.366 223.51 169.236C223.408 169.169 223.091 168.93 223.505 169.245C223.934 169.573 223.56 169.273 223.472 169.186C223.398 169.114 223.331 169.035 223.259 168.961C222.925 168.618 223.637 169.551 223.41 169.15C223.288 168.949 223.177 168.742 223.077 168.53L223.364 169.208C223.233 168.885 223.14 168.548 223.088 168.204L223.189 168.959C223.135 168.531 223.134 168.097 223.188 167.669L223.086 168.425C223.156 167.946 223.282 167.478 223.463 167.03L223.177 167.709C223.303 167.408 223.452 167.116 223.623 166.838C223.702 166.694 223.795 166.558 223.899 166.432C223.918 166.438 223.419 167.005 223.684 166.719C223.753 166.644 223.818 166.565 223.888 166.491C224 166.372 224.12 166.263 224.239 166.15C224.635 165.774 223.685 166.517 224.142 166.218C224.473 166.001 224.821 165.811 225.184 165.65L224.505 165.937C225.111 165.688 225.748 165.517 226.398 165.429L225.642 165.531C226.456 165.437 227.279 165.447 228.091 165.56L227.335 165.458C228.363 165.614 229.368 165.896 230.326 166.299L229.647 166.013C231.69 166.889 233.499 168.191 235.305 169.468C237.049 170.731 238.887 171.859 240.803 172.843C244.924 174.891 249.36 176.233 253.925 176.811C260.473 177.613 267.117 176.758 273.248 174.325C279.379 171.892 284.801 167.958 289.016 162.885C289.531 162.34 289.827 161.625 289.849 160.876C289.843 160.123 289.545 159.402 289.016 158.866C287.973 157.909 286.003 157.639 284.996 158.866C284.042 160.031 283.016 161.136 281.924 162.173C281.414 162.656 280.891 163.125 280.354 163.579C280.047 163.838 279.736 164.092 279.421 164.341C279.272 164.459 278.808 164.772 279.521 164.266C279.357 164.382 279.201 164.509 279.039 164.628C276.652 166.387 274.066 167.858 271.333 169.01L272.012 168.723C269.08 169.953 266.001 170.797 262.851 171.233L263.607 171.131C260.367 171.557 257.084 171.552 253.846 171.117L254.601 171.218C251.363 170.774 248.197 169.911 245.18 168.653L245.859 168.939C242.949 167.652 240.186 166.052 237.621 164.168C236.286 163.18 234.878 162.294 233.409 161.518C231.698 160.644 229.845 160.081 227.937 159.855C224.359 159.434 220.714 160.827 218.747 163.917C216.937 166.761 216.961 170.83 219.495 173.248C222.106 175.739 226.059 175.718 229.136 174.16C232.099 172.66 233.878 169.543 235.13 166.604C237.946 159.989 240.44 153.223 242.763 146.421C245.061 139.692 247.146 132.895 249.016 126.03C249.248 125.18 249.476 124.329 249.701 123.477C250.08 122.041 249.223 120.324 247.716 119.981C246.989 119.794 246.218 119.896 245.566 120.267C244.914 120.637 244.431 121.246 244.219 121.966Z" fill="#A36238"/>
<path d="M272.581 121.177L271.558 157.475L270.54 193.584L269.965 214.002C269.971 214.753 270.273 215.472 270.805 216.004C271.336 216.536 272.056 216.837 272.807 216.844C273.557 216.829 274.271 216.525 274.801 215.995C275.331 215.465 275.636 214.751 275.65 214.002L276.673 177.704L277.691 141.595L278.267 121.177C278.26 120.425 277.959 119.706 277.427 119.174C276.895 118.643 276.176 118.341 275.424 118.335C274.675 118.349 273.96 118.654 273.43 119.183C272.9 119.713 272.596 120.428 272.581 121.177Z" fill="#A36238"/>
<path opacity="0.2" d="M174.191 203.867H175.073V163.686H195.664V162.806H175.073V145.851H190.975C190.742 145.555 190.502 145.262 190.255 144.973H175.073V133.775C174.781 133.65 174.487 133.53 174.191 133.417V144.973H156.888V130.625C156.591 130.639 156.3 130.659 156.005 130.684V144.973H142.202V134.268C141.905 134.399 141.613 134.537 141.323 134.682V144.973H129.72V145.851H141.323V162.806H129.72V163.686H141.323V203.867H142.202V163.686C144.014 163.685 145.81 164.042 147.484 164.735C149.159 165.429 150.681 166.445 151.963 167.727C153.245 169.009 154.262 170.53 154.955 172.204C155.649 173.879 156.006 175.674 156.005 177.486V203.867H156.888V163.686H174.191V203.867ZM142.202 162.806V145.851H156.005V162.806H142.202ZM156.888 162.806V145.851H157.234C159.461 145.851 161.666 146.29 163.724 147.142C165.781 147.994 167.65 149.243 169.225 150.817C170.799 152.392 172.048 154.261 172.9 156.318C173.752 158.375 174.191 160.579 174.191 162.806H156.888Z" fill="black"/>
<path d="M168.8 191.819C167.689 196.775 165.027 201.248 161.201 204.589C160.92 204.832 160.64 205.066 160.348 205.298C159.639 205.362 158.936 205.428 158.237 205.495C157.657 205.548 157.085 205.605 156.516 205.658L156.414 205.669L156.342 205.048L156.054 202.531C154.936 200.708 154.244 198.656 154.027 196.528C153.811 194.4 154.076 192.251 154.803 190.239C155.804 187.541 157.615 185.158 159.397 182.793C161.857 179.527 164.248 176.299 164.335 172.316C165.546 173.865 166.552 175.562 167.329 177.367C166.596 177.713 165.937 178.198 165.389 178.796C165.234 178.966 165.078 179.205 165.184 179.41C165.275 179.584 165.503 179.626 165.7 179.648C166.174 179.698 166.651 179.747 167.125 179.796C167.504 179.838 167.883 179.876 168.262 179.917C168.72 181.422 169.031 182.968 169.19 184.533C169.446 186.967 169.314 189.426 168.8 191.819Z" fill="#64371D"/>
<path d="M197.043 148.592C193.781 142.229 188.726 136.876 182.78 132.941C176.816 129.013 169.972 126.62 162.858 125.977C161.926 125.892 160.991 125.842 160.054 125.828C158.947 125.811 142.291 130.614 136.712 134.536C131.135 138.411 126.548 143.541 123.32 149.514C120.098 155.52 118.513 162.267 118.725 169.079C119.001 175.932 120.911 182.619 124.297 188.584C127.637 194.53 132.378 199.57 138.11 203.266C143.923 206.974 149.763 216.807 156.626 217.154C163.542 217.504 171.428 208.229 177.735 205.412C184.042 202.573 189.495 198.13 193.55 192.527C197.49 187.036 200.039 180.672 200.978 173.98C201.954 167.128 201.499 160.061 199.158 153.512C198.558 151.829 197.851 150.186 197.043 148.592C196.369 147.264 194.392 146.775 193.154 147.573C192.517 147.965 192.055 148.588 191.865 149.312C191.675 150.037 191.771 150.806 192.134 151.461C192.53 152.241 192.899 153.034 193.239 153.84L192.953 153.161C194.241 156.258 195.118 159.512 195.559 162.838L195.457 162.082C195.927 165.69 195.919 169.345 195.432 172.951L195.534 172.195C195.043 175.801 194.08 179.326 192.671 182.682L192.957 182.003C192.232 183.715 191.387 185.373 190.429 186.966C189.943 187.771 189.427 188.556 188.882 189.323C188.643 189.66 188.396 189.991 188.147 190.32C187.823 190.751 188.589 189.758 188.254 190.18C188.197 190.252 188.14 190.324 188.083 190.396C187.911 190.611 187.736 190.824 187.559 191.036C186.377 192.445 185.088 193.761 183.702 194.97C183.357 195.271 183.006 195.566 182.649 195.853C182.472 195.997 182.296 196.146 182.111 196.28C182.118 196.275 182.709 195.825 182.359 196.086C182.249 196.168 182.14 196.251 182.03 196.333C181.294 196.878 180.54 197.394 179.765 197.884C177.983 199.006 176.112 199.984 174.173 200.806L174.852 200.52C171.506 201.928 167.989 202.89 164.392 203.381L165.148 203.28C161.553 203.765 157.909 203.772 154.312 203.299L155.068 203.4C151.799 202.962 148.602 202.097 145.557 200.83L146.236 201.116C144.472 200.372 142.772 199.486 141.151 198.467C140.349 197.962 139.568 197.425 138.807 196.858C138.699 196.777 138.591 196.695 138.483 196.613C138.136 196.351 138.732 196.806 138.737 196.809C138.535 196.665 138.341 196.51 138.155 196.345C137.788 196.046 137.427 195.74 137.071 195.428C135.647 194.174 134.318 192.818 133.094 191.369C132.787 191.007 132.487 190.64 132.194 190.267C132.067 190.105 131.835 189.778 132.347 190.467C132.28 190.376 132.21 190.287 132.142 190.197C131.979 189.981 131.817 189.762 131.659 189.542C131.102 188.772 130.573 187.984 130.071 187.176C128.938 185.347 127.949 183.433 127.113 181.451L127.399 182.13C126.032 178.876 125.096 175.457 124.617 171.961L124.719 172.716C124.287 169.493 124.281 166.227 124.701 163.002L124.599 163.758C125.03 160.635 125.87 157.582 127.098 154.679L126.812 155.358C127.585 153.54 128.497 151.785 129.539 150.107C130.061 149.268 130.614 148.449 131.198 147.65C131.331 147.469 131.465 147.288 131.601 147.109C131.724 146.947 132.061 146.543 131.485 147.256C131.542 147.186 131.596 147.115 131.652 147.044C131.972 146.638 132.301 146.238 132.637 145.845C133.91 144.355 135.288 142.96 136.762 141.669C137.134 141.342 137.513 141.023 137.897 140.71C138.071 140.568 138.247 140.428 138.424 140.289C138.495 140.233 138.566 140.179 138.637 140.123C137.88 140.725 138.427 140.286 138.598 140.158C139.39 139.565 140.203 139.001 141.037 138.467C142.892 137.282 144.843 136.254 146.869 135.395L146.19 135.681C149.131 134.447 162.162 131.533 164.532 131.851L163.776 131.749C167.26 132.235 170.664 133.176 173.903 134.546L173.224 134.26C174.866 134.957 176.461 135.758 178 136.658C178.769 137.109 179.523 137.584 180.262 138.084C180.611 138.321 180.957 138.562 181.3 138.81C181.471 138.933 181.641 139.058 181.81 139.184C181.904 139.254 181.997 139.325 182.091 139.396C182.485 139.691 181.548 138.968 181.961 139.295C183.343 140.38 184.655 141.551 185.891 142.801C186.497 143.419 187.083 144.056 187.648 144.713C187.938 145.05 188.222 145.392 188.499 145.739C188.638 145.911 189.108 146.535 188.531 145.771C188.672 145.957 188.815 146.143 188.954 146.331C190.152 147.952 191.215 149.668 192.134 151.461C192.814 152.786 194.782 153.28 196.024 152.48C196.661 152.088 197.123 151.465 197.313 150.741C197.503 150.017 197.407 149.247 197.043 148.592Z" fill="#A36238"/>
<path d="M163.921 194.97C163.628 194.984 163.338 194.907 163.089 194.75C162.841 194.593 162.647 194.363 162.534 194.092C162.421 193.821 162.393 193.522 162.456 193.235C162.518 192.948 162.668 192.687 162.883 192.488C162.919 192.344 162.945 192.241 162.981 192.098C162.968 192.066 162.955 192.035 162.942 192.004C161.623 188.86 153.207 197.625 152.844 200.58C152.683 201.886 152.751 203.21 153.043 204.493C150.317 198.548 148.902 192.086 148.893 185.546C148.892 183.905 148.983 182.265 149.166 180.634C149.317 179.297 149.526 177.969 149.794 176.651C151.255 169.5 154.392 162.797 158.947 157.093C161.553 157.238 163.836 156.841 164.056 151.793C164.096 150.895 164.762 150.118 164.909 149.233C164.66 149.266 164.407 149.286 164.158 149.303C164.081 149.307 163.999 149.311 163.922 149.315L163.893 149.316C163.619 149.328 163.348 149.261 163.112 149.123C162.876 148.985 162.685 148.782 162.562 148.537C162.438 148.293 162.388 148.018 162.418 147.746C162.447 147.474 162.554 147.217 162.727 147.004C162.834 146.872 162.942 146.74 163.049 146.608C163.212 146.404 163.38 146.204 163.543 146.001C163.561 145.981 163.579 145.961 163.596 145.939C163.783 145.707 163.971 145.479 164.158 145.246C163.816 144.715 163.355 144.27 162.813 143.946C160.933 142.846 158.34 143.608 156.982 145.308C155.62 147.008 155.363 149.392 155.836 151.516C156.301 153.323 157.071 155.038 158.112 156.587C158.01 156.718 157.904 156.844 157.802 156.974C155.938 159.37 154.314 161.942 152.953 164.654C153.338 161.646 148.628 150.783 146.806 148.482C144.618 145.718 140.131 146.924 139.746 150.428C139.742 150.462 139.738 150.496 139.735 150.53C140.005 150.682 140.27 150.844 140.529 151.015C140.855 151.233 141.107 151.544 141.253 151.907C141.399 152.27 141.432 152.669 141.347 153.051C141.262 153.433 141.064 153.781 140.778 154.049C140.493 154.316 140.133 154.491 139.746 154.551L139.706 154.557C136.085 159.727 147.695 173.183 150.601 170.162C149.233 174.037 148.375 178.074 148.049 182.171C147.864 184.588 147.875 187.016 148.081 189.431L148.069 189.345C147.423 184.085 136.346 176.264 133.111 176.915C131.247 177.29 129.412 177.205 129.695 179.084C129.699 179.114 129.704 179.144 129.709 179.174C130.211 179.379 130.699 179.614 131.172 179.88C131.443 180.032 131.708 180.194 131.967 180.366C132.292 180.583 132.545 180.894 132.691 181.257C132.836 181.62 132.869 182.019 132.785 182.401C132.7 182.783 132.502 183.131 132.216 183.399C131.93 183.666 131.57 183.841 131.183 183.901L131.144 183.907C131.115 183.911 131.091 183.915 131.062 183.919C129.414 189.59 141.639 198.743 149.072 195.831H149.076C149.813 199.031 150.88 202.145 152.261 205.125H163.636C163.677 204.998 163.714 204.868 163.751 204.742C162.698 204.808 161.64 204.745 160.603 204.554C161.447 203.519 162.291 202.475 163.135 201.44C163.154 201.42 163.171 201.4 163.188 201.379C163.616 200.849 164.048 200.323 164.476 199.793L164.477 199.792C164.499 198.168 164.313 196.547 163.922 194.971L163.921 194.97ZM150.895 169.35L150.901 169.342L150.895 169.358V169.35ZM148.375 192.06L148.277 191.84C148.281 191.681 148.281 191.522 148.277 191.359C148.277 191.314 148.269 191.269 148.269 191.224C148.305 191.506 148.338 191.787 148.379 192.068L148.375 192.06Z" fill="#64371D"/>
<path d="M36.1004 171.305C38.403 171.305 40.2695 169.438 40.2695 167.136C40.2695 164.834 38.403 162.968 36.1004 162.968C33.7979 162.968 31.9313 164.834 31.9313 167.136C31.9313 169.438 33.7979 171.305 36.1004 171.305Z" fill="#A36238"/>
<path d="M86.1299 216.775C88.4325 216.775 90.2991 214.909 90.2991 212.607C90.2991 210.305 88.4325 208.439 86.1299 208.439C83.8274 208.439 81.9608 210.305 81.9608 212.607C81.9608 214.909 83.8274 216.775 86.1299 216.775Z" fill="#A36238"/>
<path d="M276.015 216.775C278.318 216.775 280.184 214.909 280.184 212.607C280.184 210.305 278.318 208.439 276.015 208.439C273.712 208.439 271.846 210.305 271.846 212.607C271.846 214.909 273.712 216.775 276.015 216.775Z" fill="#A36238"/>
<path d="M286.248 163.726C288.551 163.726 290.417 161.86 290.417 159.558C290.417 157.256 288.551 155.39 286.248 155.39C283.946 155.39 282.079 157.256 282.079 159.558C282.079 161.86 283.946 163.726 286.248 163.726Z" fill="#A36238"/>
<path d="M274.12 125.076C276.422 125.076 278.289 123.21 278.289 120.908C278.289 118.606 276.422 116.74 274.12 116.74C271.817 116.74 269.951 118.606 269.951 120.908C269.951 123.21 271.817 125.076 274.12 125.076Z" fill="#A36238"/>
<path d="M100.153 159.558C100.151 160.623 99.739 161.646 99.0031 162.415C98.2672 163.185 97.2635 163.642 96.1997 163.692C95.136 163.743 94.0936 163.382 93.2882 162.686C92.4829 161.989 91.9763 161.009 91.8732 159.95C91.7702 158.89 92.0786 157.831 92.7346 156.992C93.3906 156.154 94.3441 155.599 95.3976 155.444C96.4511 155.288 97.5241 155.544 98.3945 156.157C99.265 156.771 99.8662 157.695 100.074 158.739C100.127 159.009 100.154 159.283 100.153 159.558Z" fill="#A36238"/>
<path d="M183.536 137.202C185.839 137.202 187.705 135.335 187.705 133.033C187.705 130.731 185.839 128.865 183.536 128.865C181.234 128.865 179.367 130.731 179.367 133.033C179.367 135.335 181.234 137.202 183.536 137.202Z" fill="#A36238"/>
<path d="M142.224 133.033C142.221 134.098 141.809 135.121 141.074 135.891C140.338 136.66 139.334 137.118 138.27 137.168C137.206 137.218 136.164 136.858 135.359 136.161C134.553 135.464 134.047 134.485 133.944 133.425C133.841 132.365 134.149 131.307 134.805 130.468C135.461 129.629 136.414 129.075 137.468 128.919C138.522 128.764 139.595 129.019 140.465 129.633C141.335 130.246 141.937 131.171 142.144 132.215C142.198 132.484 142.224 132.759 142.224 133.033Z" fill="#A36238"/>
<path d="M88.4041 120.908C88.4016 121.973 87.9898 122.996 87.2538 123.765C86.5179 124.535 85.5142 124.992 84.4504 125.042C83.3867 125.093 82.3443 124.732 81.539 124.036C80.7336 123.339 80.227 122.359 80.124 121.3C80.0209 120.24 80.3293 119.181 80.9853 118.343C81.6414 117.504 82.5948 116.949 83.6483 116.794C84.7019 116.638 85.7749 116.894 86.6453 117.507C87.5157 118.121 88.1169 119.045 88.3245 120.09C88.378 120.359 88.4046 120.633 88.4041 120.908Z" fill="#A36238"/>
<path d="M227.122 172.82C229.425 172.82 231.292 170.954 231.292 168.652C231.292 166.35 229.425 164.484 227.122 164.484C224.82 164.484 222.953 166.35 222.953 168.652C222.953 170.954 224.82 172.82 227.122 172.82Z" fill="#A36238"/>
<path d="M161.553 134.928C164.902 134.928 167.618 132.214 167.618 128.865C167.618 125.517 164.902 122.803 161.553 122.803C158.204 122.803 155.489 125.517 155.489 128.865C155.489 132.214 158.204 134.928 161.553 134.928Z" fill="#A36238"/>
<path d="M325.549 217.094L0.45128 217.21C0.392016 217.21 0.333332 217.198 0.27858 217.176C0.223828 217.153 0.174082 217.12 0.132176 217.078C0.0902711 217.036 0.0570258 216.986 0.0343468 216.932C0.0116677 216.877 0 216.818 0 216.759C0 216.7 0.0116677 216.641 0.0343468 216.586C0.0570258 216.532 0.0902711 216.482 0.132176 216.44C0.174082 216.398 0.223828 216.365 0.27858 216.342C0.333332 216.319 0.392016 216.308 0.45128 216.308L325.549 216.191C325.668 216.192 325.783 216.239 325.867 216.324C325.951 216.409 325.999 216.523 325.999 216.643C325.999 216.762 325.951 216.877 325.867 216.961C325.783 217.046 325.668 217.093 325.549 217.094Z" fill="#A36238"/>
</g>
<defs>
<clipPath id="clip0_450_537">
<rect width="326" height="216.42" fill="white" transform="translate(0 0.789886)"/>
</clipPath>
</defs>
</svg>
