<svg width="136" height="226" viewBox="0 0 136 226" fill="none" xmlns="http://www.w3.org/2000/svg">
<path d="M41.1087 0H65.7543V21.1072H55.8962C50.9341 21.1072 47.1058 19.914 44.4113 17.5273C42.2096 15.5747 41.1087 13.1572 41.1087 10.2747V0ZM28.6874 63.2752C23.364 63.2752 18.632 61.4156 14.4916 57.6961C10.8441 54.4107 7.98515 50.0408 5.91491 44.5855C4.00901 39.5644 3.05606 34.5898 3.05606 29.6617C3.05606 22.254 4.99482 15.6677 8.87238 9.90272C11.6327 5.81147 15.2638 2.92898 19.7657 1.25527C22.0659 0.418425 24.6291 0 27.4551 0H31.2506V63.2752H28.6874ZM38.5456 33.7065H65.7543V45.0505C65.7543 51.6833 63.9306 56.3635 60.2829 59.091C56.6028 61.8803 50.5232 63.2752 42.0453 63.2752H38.5456V33.7065ZM72.7596 0H99.2781V63.1824H72.7596V0ZM107.756 58.7653C107.756 52.3498 111.699 47.9951 119.586 45.7013C122.609 44.8335 126.503 44.3996 131.268 44.3996H135.162V63.2752H107.756V58.7653ZM38.3977 69.507H42.2424C54.4339 69.507 62.4846 74.6367 66.3953 84.8957C67.9726 89.1108 68.761 93.9616 68.761 99.4474C68.761 108.684 66.8718 116.293 63.0928 122.275C58.6233 129.28 51.6735 132.782 42.2424 132.782H38.3977V69.507ZM26.5186 132.782C14.393 132.782 6.35852 126.986 2.41526 115.394C0.805091 110.683 0 105.367 0 99.4474C0 87.3908 3.54894 78.8828 10.6468 73.9236C14.8202 70.979 20.1107 69.507 26.5186 69.507H30.3633V132.782H26.5186ZM134.817 89.1727C134.817 98.5333 130.479 104.686 121.804 107.63C126.667 109.335 130.331 112.109 132.796 115.952C134.932 119.362 136 123.329 136 127.854V132.782H106.623V69.4142H109.186C117.861 69.4142 124.252 70.9638 128.36 74.0631C132.665 77.3175 134.817 82.3544 134.817 89.1727ZM71.9217 69.507H98.4402V132.782H71.9217V69.507ZM100.581 204.009C100.581 218.67 92.7771 226 77.168 226H74.1123V139.014H100.581V204.009ZM37.7846 139.014H65.0426V202.289H60.6064C48.5133 202.289 41.3006 198.415 38.9675 190.666C38.1789 188.155 37.7846 185.258 37.7846 181.972V139.014Z" fill="url(#paint0_linear_61_46)"/>
<defs>
<linearGradient id="paint0_linear_61_46" x1="0" y1="0" x2="166.238" y2="25.0092" gradientUnits="userSpaceOnUse">
<stop stop-color="#B66D40"/>
<stop offset="0.510417" stop-color="#A36238"/>
<stop offset="1" stop-color="#64371D"/>
</linearGradient>
</defs>
</svg>
