<svg width="32" height="54" viewBox="0 0 32 54" fill="none" xmlns="http://www.w3.org/2000/svg">
<path d="M9.67265 0H15.4716V4.96499H13.152C11.9845 4.96499 11.0837 4.6843 10.4497 4.1229C9.93167 3.66359 9.67265 3.09492 9.67265 2.41688V0ZM6.74997 14.884C5.49741 14.884 4.38401 14.4466 3.40978 13.5717C2.55154 12.7989 1.87886 11.7709 1.39174 10.4877C0.943296 9.30662 0.719072 8.13646 0.719072 6.97723C0.719072 5.23474 1.17525 3.68547 2.08762 2.32939C2.73711 1.36702 3.59149 0.688975 4.65076 0.295274C5.19199 0.0984249 5.79509 0 6.46003 0H7.35307V14.884H6.74997ZM9.06956 7.92867H15.4716V10.5971C15.4716 12.1573 15.0425 13.2582 14.1842 13.8998C13.3183 14.5559 11.8878 14.884 9.89301 14.884H9.06956V7.92867ZM17.1199 0H23.3596V14.8622H17.1199V0ZM25.3544 13.8232C25.3544 12.3141 26.2822 11.2897 28.1378 10.7502C28.8492 10.546 29.7655 10.444 30.8866 10.444H31.8029V14.884H25.3544V13.8232ZM9.03476 16.3499H9.9394C12.808 16.3499 14.7022 17.5566 15.6224 19.9697C15.9936 20.9613 16.1791 22.1023 16.1791 23.3927C16.1791 25.5654 15.7345 27.3553 14.8454 28.7624C13.7937 30.4101 12.1585 31.2339 9.9394 31.2339H9.03476V16.3499ZM6.23967 31.2339C3.38658 31.2339 1.49612 29.8706 0.568297 27.1439C0.189433 26.0357 0 24.7852 0 23.3927C0 20.5567 0.835044 18.5554 2.50514 17.3888C3.4871 16.6962 4.73194 16.3499 6.23967 16.3499H7.1443V31.2339H6.23967ZM31.7216 20.9758C31.7216 23.1777 30.701 24.6249 28.6598 25.3175C29.8041 25.7185 30.6662 26.3711 31.2461 27.275C31.7487 28.0771 32 29.0102 32 30.0747V31.2339H25.0877V16.3281H25.6907C27.7319 16.3281 29.2358 16.6926 30.2023 17.4216C31.2152 18.1872 31.7216 19.372 31.7216 20.9758ZM16.9227 16.3499H23.1624V31.2339H16.9227V16.3499ZM23.6662 47.9885C23.6662 51.437 21.8299 53.1613 18.1572 53.1613H17.4382V32.6998H23.6662V47.9885ZM8.89049 32.6998H15.3041V47.5838H14.2603C11.4149 47.5838 9.7178 46.6725 9.16883 44.8498C8.98326 44.2592 8.89049 43.5776 8.89049 42.8047V32.6998Z" fill="#A36238"/>
</svg>
